Coordinates
version=1
nRows=7
nColumns=46
inDegrees=yes

Units are S.I. units (second, meters, Newtons, ...)
Angles are in degrees.

endheader
time	pelvis_tilt	pelvis_list	pelvis_rotation	pelvis_tx	pelvis_ty	pelvis_tz	bb_angle	bb_tx	bb_ty	bb_tz	hip_flexion_r	hip_adduction_r	hip_rotation_r	knee_angle_r	knee_angle_r_beta	ankle_angle_r	subtalar_angle_r	mtp_angle_r	crank_angle_r	hip_flexion_l	hip_adduction_l	hip_rotation_l	knee_angle_l	knee_angle_l_beta	ankle_angle_l	subtalar_angle_l	mtp_angle_l	crank_angle_l	lumbar_extension	lumbar_bending	lumbar_rotation	arm_flex_r	arm_add_r	arm_rot_r	elbow_flex_r	pro_sup_r	wrist_flex_r	wrist_dev_r	arm_flex_l	arm_add_l	arm_rot_l	elbow_flex_l	pro_sup_l	wrist_flex_l	wrist_dev_l
      7.50000000	    -26.45616721	     -9.69439305	     -8.77540586	      0.38065099	      1.21932332	     -0.25053472	      0.00000000	      0.50000000	      0.00000000	      0.25000000	     82.19864712	      1.47022968	    -11.67980575	     94.78553504	      1.65431967	    -11.34827582	     -5.25574820	      0.00000000	      0.00000000	     29.54660025	    -19.03415478	    -10.24919380	     32.04103087	      0.55922148	    -15.11918114	      0.11477601	      0.00000000	      0.00000000	    -66.09784519	      7.51156969	      9.16880179	     87.79264459	    -10.10990616	     51.84136902	     55.95657063	     56.05294981	      0.00000000	      0.00000000	     53.48476175	    -35.88318579	     17.34248939	     84.08179919	     54.23183430	      0.00000000	      0.00000000
      7.50500000	    -26.69807485	     -9.45354966	     -8.82319103	      0.38059737	      1.22181549	     -0.25082227	      0.00000000	      0.50000000	      0.00000000	      0.25000000	     81.71545868	      1.73728112	    -11.34860340	     93.08109850	      1.62457164	     -9.81550057	     -4.49918687	      0.00000000	      0.00000000	     30.86230596	    -19.05706738	     -9.75376028	     34.52207936	      0.60252395	    -16.13056613	     -0.70013869	      0.00000000	      0.00000000	    -66.43407075	      7.37402283	     10.34036196	     87.66106437	    -12.55549230	     51.33408341	     59.22824360	     56.30691591	      0.00000000	      0.00000000	     55.24569156	    -34.24658029	     18.60377039	     82.68249077	     54.21902626	      0.00000000	      0.00000000
      7.51000000	    -27.03054955	     -9.17752687	     -8.86096852	      0.38057774	      1.22403219	     -0.25103003	      0.00000000	      0.50000000	      0.00000000	      0.25000000	     81.21246747	      2.00738931	    -10.95994455	     91.24400234	      1.59250826	     -8.21448054	     -3.67549206	      0.00000000	      0.00000000	     32.37583143	    -19.05983858	     -9.16764136	     37.07048815	      0.64700207	    -17.21982599	     -1.28732324	      0.00000000	      0.00000000	    -66.67006572	      7.44506710	     10.51813988	     87.96253304	    -12.61588321	     51.06164658	     59.57563867	     56.29409522	      0.00000000	      0.00000000	     55.55039616	    -34.25966058	     18.38470951	     82.55826924	     54.18701892	      0.00000000	      0.00000000
      7.51500000	    -27.44494682	     -8.84864357	     -8.85844921	      0.38056626	      1.22600088	     -0.25127357	      0.00000000	      0.50000000	      0.00000000	      0.25000000	     80.68458930	      2.21988639	    -10.50372182	     89.30574707	      1.55867933	     -6.51531593	     -2.76968852	      0.00000000	      0.00000000	     34.06255872	    -18.97348262	     -8.45003289	     39.63210462	      0.69171072	    -18.50620361	     -1.81072632	      0.00000000	      0.00000000	    -66.88823977	      7.43988570	     10.89981258	     87.95287455	    -13.54657817	     50.45583304	     61.37074763	     56.35568700	      0.00000000	      0.00000000	     55.92686411	    -33.44032979	     18.02638489	     82.45843273	     54.20537357	      0.00000000	      0.00000000
      7.52000000	    -27.55886498	     -8.28671991	     -8.87518452	      0.38083796	      1.22830319	     -0.25148987	      0.00000000	      0.50000000	      0.00000000	      0.25000000	     79.78493567	      2.48746467	     -9.71009540	     87.29453886	      1.52357712	     -5.10882027	     -2.57391555	      0.00000000	      0.00000000	     35.37003691	    -18.67337582	     -8.04278179	     42.08393484	      0.73450323	    -19.93793559	     -2.03686335	      0.00000000	      0.00000000	    -67.24526002	      7.29735060	     10.61894956	     88.16575081	    -13.52986950	     50.34534552	     61.60451880	     56.36443438	      0.00000000	      0.00000000	     56.27110306	    -33.40134415	     17.90980444	     82.48758134	     54.19680567	      0.00000000	      0.00000000
      7.52500000	    -28.18404171	     -8.06455585	     -8.61746938	      0.38051087	      1.22931581	     -0.25219611	      0.00000000	      0.50000000	      0.00000000	      0.25000000	     79.20951985	      2.48235820	     -9.38984875	     85.09193534	      1.48513444	     -3.25152386	     -1.44738848	      0.00000000	      0.00000000	     37.58604509	    -18.44569762	     -6.71713812	     44.78436142	      0.78163456	    -21.29245979	     -2.63094772	      0.00000000	      0.00000000	    -67.15841503	      7.67136902	     10.76791047	     88.18243267	    -13.80715959	     49.74562836	     62.59384996	     56.39515654	      0.00000000	      0.00000000	     56.24057308	    -33.25779172	     17.76851231	     82.65618232	     54.22868868	      0.00000000	      0.00000000
      7.53000000	    -28.72657607	     -7.64415701	     -8.60378611	      0.38088132	      1.23037952	     -0.25279259	      0.00000000	      0.50000000	      0.00000000	      0.25000000	     78.44013599	      2.64848670	     -8.85054712	     82.77980534	      1.44478016	     -1.65567475	     -0.90661361	      0.00000000	      0.00000000	     39.49339610	    -18.19133401	     -5.94966605	     47.32291128	      0.82594061	    -22.59276656	     -2.67657786	      0.00000000	      0.00000000	    -67.18454640	      7.58722896	     11.01191159	     87.93503944	    -15.02935425	     49.05689838	     64.93151430	     56.55566647	      0.00000000	      0.00000000	     56.23603010	    -32.29334989	     17.05641282	     83.05642563	     54.27471300	      0.00000000	      0.00000000
